<svg xmlns="http://www.w3.org/2000/svg" viewBox="0 0 32 32" fill="none">
  <!-- Blue circular background -->
  <circle cx="16" cy="16" r="16" fill="#2563EB"/>
  
  <!-- Bar chart icon (same as landing page) -->
  <path 
    stroke="white" 
    stroke-width="2" 
    stroke-linecap="round" 
    stroke-linejoin="round" 
    d="M11 22v-6a2 2 0 00-2-2H7a2 2 0 00-2 2v6a2 2 0 002 2h2a2 2 0 002-2zm0 0V11a2 2 0 012-2h2a2 2 0 012 2v11m-6 0a2 2 0 002 2h2a2 2 0 002-2m0 0V7a2 2 0 012-2h2a2 2 0 012 2v15a2 2 0 01-2 2h-2a2 2 0 01-2-2z"
  />
</svg>
